<svg xmlns="http://www.w3.org/2000/svg" xmlns:xlink="http://www.w3.org/1999/xlink" viewBox="0 0 17.58 17.58"><defs><style>.cls-1{fill:url(#Gradiente_sem_nome_3);}</style><linearGradient id="Gradiente_sem_nome_3" y1="8.79" x2="17.58" y2="8.79" gradientUnits="userSpaceOnUse"><stop offset="0" stop-color="#7e86d7"/><stop offset="1" stop-color="#15cbb2"/></linearGradient></defs><g id="Camada_2" data-name="Camada 2"><g id="Top_Bar" data-name="Top Bar"><path class="cls-1" d="M17.55,1.74a.29.29,0,0,0-.3-.15l-1.49.23L16,.32A.29.29,0,0,0,15.84,0a.31.31,0,0,0-.33.05L13.77,1.82a.3.3,0,0,0-.08.16l-.27,1.78-1,1A7.41,7.41,0,0,0,2.16,5a7.39,7.39,0,1,0,11.23.89.29.29,0,0,0-.4-.06.28.28,0,0,0-.06.39,6.76,6.76,0,1,1-.9-1L10.74,6.44A5,5,0,0,0,7.4,5.16a5,5,0,1,0,4.29,2.41.28.28,0,1,0-.48.29,4.51,4.51,0,0,1,.65,2.32,4.45,4.45,0,1,1-1.51-3.35L9.06,8.12a2.65,2.65,0,1,0,1,2.06,2.74,2.74,0,0,0-.11-.76.28.28,0,0,0-.35-.19.27.27,0,0,0-.19.35,2,2,0,0,1,.09.6A2.1,2.1,0,1,1,7.4,8.09a2,2,0,0,1,1.26.43L7.2,10a.28.28,0,0,0,0,.4.28.28,0,0,0,.2.08.27.27,0,0,0,.19-.08l5-5,1.19-1.19,1.78-.28a.27.27,0,0,0,.16-.08l1.73-1.73a.29.29,0,0,0,.06-.33Zm-3.32.41L15.3,1.08,15.16,2,14.09,3.09Zm1.19,1.19-.93.15,1.06-1.07.94-.15Z"/></g></g></svg>