<svg xmlns="http://www.w3.org/2000/svg" xmlns:xlink="http://www.w3.org/1999/xlink" viewBox="0 0 19.06 10.57"><defs><style>.cls-1{fill:url(#Gradiente_sem_nome_3);}.cls-2{fill:url(#Gradiente_sem_nome_3-2);}.cls-3{fill:url(#Gradiente_sem_nome_3-3);}.cls-4{fill:url(#Gradiente_sem_nome_3-4);}.cls-5{fill:url(#Gradiente_sem_nome_3-5);}.cls-6{fill:url(#Gradiente_sem_nome_3-6);}.cls-7{fill:url(#Gradiente_sem_nome_3-7);}</style><linearGradient id="Gradiente_sem_nome_3" x1="14.17" y1="4.98" x2="18.59" y2="4.98" gradientUnits="userSpaceOnUse"><stop offset="0" stop-color="#7e86d7"/><stop offset="1" stop-color="#15cbb2"/></linearGradient><linearGradient id="Gradiente_sem_nome_3-2" x1="9.78" y1="2.12" x2="15.16" y2="2.12" xlink:href="#Gradiente_sem_nome_3"/><linearGradient id="Gradiente_sem_nome_3-3" x1="0.47" y1="4.98" x2="4.9" y2="4.98" xlink:href="#Gradiente_sem_nome_3"/><linearGradient id="Gradiente_sem_nome_3-4" x1="3.9" y1="2.12" x2="9.28" y2="2.12" xlink:href="#Gradiente_sem_nome_3"/><linearGradient id="Gradiente_sem_nome_3-5" x1="0" y1="8.29" x2="2.49" y2="8.29" xlink:href="#Gradiente_sem_nome_3"/><linearGradient id="Gradiente_sem_nome_3-6" x1="16.57" y1="8.29" x2="19.06" y2="8.29" xlink:href="#Gradiente_sem_nome_3"/><linearGradient id="Gradiente_sem_nome_3-7" x1="8.68" y1="7.65" x2="12.44" y2="7.65" xlink:href="#Gradiente_sem_nome_3"/></defs><g id="Camada_2" data-name="Camada 2"><g id="Top_Bar" data-name="Top Bar"><path class="cls-1" d="M16.42,7.81l2.17-1.24a9.44,9.44,0,0,0-3-4.42l-1.39,2.4A7.25,7.25,0,0,1,16.42,7.81Z"/><path class="cls-2" d="M13.77,4.24l1.39-2.4A9.47,9.47,0,0,0,9.78,0V2.88A7.24,7.24,0,0,1,13.77,4.24Z"/><path class="cls-3" d="M4.9,4.55,3.5,2.15a9.51,9.51,0,0,0-3,4.42L2.64,7.81A7.27,7.27,0,0,1,4.9,4.55Z"/><path class="cls-4" d="M9.28,2.88V0A9.49,9.49,0,0,0,3.9,1.84l1.4,2.4A7.24,7.24,0,0,1,9.28,2.88Z"/><path class="cls-5" d="M0,9.53H2.28A8.31,8.31,0,0,1,2.49,8.3L.32,7.06A9.56,9.56,0,0,0,0,9.53Z"/><path class="cls-6" d="M16.57,8.3a7.19,7.19,0,0,1,.21,1.23h2.28a9.56,9.56,0,0,0-.32-2.47Z"/><path class="cls-7" d="M12.44,4.73,9.5,8.91a.83.83,0,1,0,.85.83.77.77,0,0,0-.13-.42Z"/></g></g></svg>