<svg xmlns="http://www.w3.org/2000/svg" xmlns:xlink="http://www.w3.org/1999/xlink" viewBox="0 0 16.22 17.24"><defs><style>.cls-1{fill:url(#Gradiente_sem_nome_3);}.cls-2{fill:url(#Gradiente_sem_nome_3-2);}</style><linearGradient id="Gradiente_sem_nome_3" y1="8.13" x2="16.22" y2="8.13" gradientUnits="userSpaceOnUse"><stop offset="0" stop-color="#7e86d7"/><stop offset="1" stop-color="#15cbb2"/></linearGradient><linearGradient id="Gradiente_sem_nome_3-2" x1="11.12" y1="13.9" x2="15.24" y2="13.9" xlink:href="#Gradiente_sem_nome_3"/></defs><g id="Camada_2" data-name="Camada 2"><g id="Top_Bar" data-name="Top Bar"><path class="cls-1" d="M11.08,14.77a8.79,8.79,0,0,1-.9.34,8.63,8.63,0,0,0,.84-.87L10.86,13a7.74,7.74,0,0,1-2.31,2.25V11.78a7.54,7.54,0,0,1,2.22.49l-.12-.93A7.8,7.8,0,0,0,8.55,11V8.55h3.73a9.19,9.19,0,0,1-.31,2l.73.61a9.64,9.64,0,0,0,.46-2.59h2.21a7.2,7.2,0,0,1-1.28,3.73l.64.53a8.1,8.1,0,0,0-.61-10.12h0l-.3-.3A8,8,0,0,0,9,.07h0L8.6,0H8.38a5.12,5.12,0,0,0-.56,0,.51.51,0,0,0-.17,0h0l-.33,0h0A8,8,0,0,0,2.39,2.38l-.29.3h0a8.08,8.08,0,0,0,0,10.89h0l.29.3A8.16,8.16,0,0,0,7.25,16.2h0l.33,0h0a.51.51,0,0,0,.17,0h0l.56,0H8.6l.34,0H9a7.89,7.89,0,0,0,2.21-.56Zm4.29-7.06H13.16a9.81,9.81,0,0,0-.82-3.56,9,9,0,0,0,1.18-.88A7.21,7.21,0,0,1,15.37,7.71Zm-2.45-5a6.61,6.61,0,0,1-1,.71,8.58,8.58,0,0,0-1.78-2.23A7.24,7.24,0,0,1,12.92,2.68ZM8.55,1a7.63,7.63,0,0,1,2.63,2.78,7.18,7.18,0,0,1-2.63.66Zm0,4.28a8.14,8.14,0,0,0,3-.75,8.85,8.85,0,0,1,.72,3.14H8.55ZM6,1.16A8.58,8.58,0,0,0,4.26,3.39a7.91,7.91,0,0,1-1-.71A7.32,7.32,0,0,1,6,1.16ZM2.71,3.27a8.41,8.41,0,0,0,1.18.88,9.62,9.62,0,0,0-.83,3.56H.85A7.22,7.22,0,0,1,2.71,3.27ZM.85,8.55H3.06a9.63,9.63,0,0,0,.83,3.57A7.7,7.7,0,0,0,2.71,13,7.25,7.25,0,0,1,.85,8.55Zm2.45,5a8,8,0,0,1,1-.72A8.8,8.8,0,0,0,6,15.11,7.46,7.46,0,0,1,3.3,13.59Zm4.37,1.64A7.63,7.63,0,0,1,5,12.45a7.4,7.4,0,0,1,2.63-.67Zm0-4.28a7.9,7.9,0,0,0-3,.75A8.9,8.9,0,0,1,4,8.55H7.67Zm0-3.24H4a8.85,8.85,0,0,1,.72-3.14,8.09,8.09,0,0,0,3,.75Zm0-3.23A7.18,7.18,0,0,1,5,3.82,7.63,7.63,0,0,1,7.67,1Z"/><polygon class="cls-2" points="15.23 13.95 11.12 10.56 11.79 15.85 13 15.18 14.13 17.24 15.15 16.67 14.02 14.62 15.23 13.95"/></g></g></svg>