<svg xmlns="http://www.w3.org/2000/svg" xmlns:xlink="http://www.w3.org/1999/xlink" viewBox="0 0 17.06 18.75"><defs><style>.cls-1{fill:url(#Gradiente_sem_nome_3);}.cls-2{fill:url(#Gradiente_sem_nome_3-2);}.cls-3{fill:url(#Gradiente_sem_nome_3-3);}.cls-4{fill:url(#Gradiente_sem_nome_3-4);}</style><linearGradient id="Gradiente_sem_nome_3" x1="15.18" y1="21.97" x2="15.18" y2="0.69" gradientUnits="userSpaceOnUse"><stop offset="0" stop-color="#7e86d7"/><stop offset="1" stop-color="#15cbb2"/></linearGradient><linearGradient id="Gradiente_sem_nome_3-2" x1="10.75" y1="21.97" x2="10.75" y2="0.69" xlink:href="#Gradiente_sem_nome_3"/><linearGradient id="Gradiente_sem_nome_3-3" x1="1.88" y1="21.97" x2="1.88" y2="0.69" xlink:href="#Gradiente_sem_nome_3"/><linearGradient id="Gradiente_sem_nome_3-4" x1="6.31" y1="21.97" x2="6.31" y2="0.69" xlink:href="#Gradiente_sem_nome_3"/></defs><g id="Camada_2" data-name="Camada 2"><g id="Top_Bar" data-name="Top Bar"><polygon class="cls-1" points="13.3 7.19 13.3 10.76 14.36 12.17 13.3 12.17 13.3 18.75 17.06 18.75 17.06 7.19 13.3 7.19"/><polygon class="cls-2" points="12.63 0 8.87 0 8.87 6.06 9.92 7.47 8.87 7.47 8.87 18.75 12.63 18.75 12.63 12.17 11.57 12.17 12.63 10.76 12.63 0"/><polygon class="cls-3" points="3.76 12.19 3.76 10.31 0 10.31 0 18.75 3.76 18.75 3.76 13.6 2.71 13.6 3.76 12.19"/><polygon class="cls-4" points="8.2 3.46 4.43 3.46 4.43 12.19 5.49 13.6 4.43 13.6 4.43 18.75 8.2 18.75 8.2 7.47 7.14 7.47 8.2 6.06 8.2 3.46"/></g></g></svg>